<svg width="84.000000" height="84.000000" viewBox="0 0 84 84" fill="none" xmlns="http://www.w3.org/2000/svg" xmlns:xlink="http://www.w3.org/1999/xlink">
	<desc>
			Created with Pixso.
	</desc>
	<defs>
		<clipPath id="clip0_226">
			<rect id="checkmark 1" width="84.000000" height="84.000000" fill="white" fill-opacity="0"/>
		</clipPath>
	</defs>
	<rect id="checkmark 1" width="84.000000" height="84.000000" fill="#FFFFFF" fill-opacity="0"/>
	<g clip-path="url(#clip0_226)">
		<path id="Vector" d="M38.499 80.4451C17.2722 80.4451 0 63.1736 0 41.9468C0 20.72 17.2722 3.44775 38.499 3.44775C45.8804 3.44775 53.0616 5.55103 59.267 9.53394C60.4852 10.3184 60.8422 11.9421 60.0579 13.1636C59.2709 14.385 57.6501 14.7383 56.4287 13.9546C51.0737 10.5137 44.8723 8.69751 38.499 8.69751C20.1663 8.69751 5.24988 23.614 5.24988 41.9468C5.24988 60.2788 20.1663 75.1953 38.499 75.1953C56.8312 75.1953 71.7476 60.2788 71.7476 41.9468C71.7476 40.8508 71.6949 39.7659 71.5938 38.699C71.4541 37.2532 72.5107 35.9722 73.9528 35.8325C75.4016 35.6992 76.6788 36.7495 76.8192 38.1914C76.9377 39.427 76.9974 40.6797 76.9974 41.9468C76.9974 63.1736 59.7258 80.4451 38.499 80.4451Z" fill="#4285F4" fill-opacity="1.000000" fill-rule="nonzero"/>
		<path id="Vector" d="M36.3732 57.7476C35.7015 57.7476 35.0293 57.4919 34.5186 56.978L18.769 41.2285C17.7437 40.2024 17.7437 38.54 18.769 37.5146C19.7944 36.4893 21.4568 36.4893 22.4821 37.5146L36.377 51.4097L73.0168 14.769C74.0428 13.7437 75.7052 13.7437 76.7306 14.769C77.756 15.7944 77.756 17.4568 76.7306 18.4822L38.2316 56.9812C37.717 57.4919 37.0454 57.7476 36.3732 57.7476Z" fill="#4285F4" fill-opacity="1.000000" fill-rule="nonzero"/>
	</g>
</svg>
