<svg width="74.000000" height="74.000000" viewBox="0 0 74 74" fill="none" xmlns="http://www.w3.org/2000/svg" xmlns:xlink="http://www.w3.org/1999/xlink">
	<desc>
			Created with Pixso.
	</desc>
	<defs>
		<clipPath id="clip0_203">
			<rect id="contract 1" width="74.000000" height="74.000000" fill="white" fill-opacity="0"/>
		</clipPath>
	</defs>
	<rect id="contract 1" width="74.000000" height="74.000000" fill="#FFFFFF" fill-opacity="0"/>
	<g clip-path="url(#clip0_203)">
		<path id="Vector" d="M72.2799 16.7444C72.1432 16.4912 71.9117 16.3027 71.6359 16.2207L68.0297 15.145L68.6777 12.9775C68.8613 12.3726 68.7964 11.7312 68.4951 11.1719C68.3766 10.9519 68.2266 10.7563 68.0524 10.5881L69.254 6.57153C69.885 4.44922 68.6738 2.20923 66.5559 1.5791C65.5293 1.27197 64.4423 1.38403 63.4956 1.89526C62.5504 2.40625 61.8619 3.25171 61.5577 4.2749L60.356 8.2915C59.573 8.43872 58.891 8.97412 58.5873 9.74829L49.2897 0.892578L49.127 0.737061C48.9324 0.550049 48.7495 0.376465 48.5382 0.244141C48.5288 0.237549 48.5193 0.231201 48.5096 0.225098C48.5057 0.222656 48.502 0.220215 48.4982 0.218018C48.4148 0.165283 48.324 0.123047 48.2272 0.0944824C48.0643 0.036377 47.8824 0 47.6649 0L3.64246 0C2.51062 0 1.58984 0.92041 1.58984 2.05151L1.58984 33.0698C1.58984 33.6687 2.0752 34.1538 2.67383 34.1538C3.27246 34.1538 3.75781 33.6687 3.75781 33.0698L3.75781 2.16797L46.8344 2.16797L46.8273 8.42773C46.8273 11.1755 49.0626 13.4109 51.8103 13.4109L57.4819 13.4109L53.025 28.3149C52.8535 28.8884 53.1794 29.4924 53.7531 29.6638C54.3268 29.8359 54.9305 29.5095 55.1021 28.9358L59.9633 12.6804C59.9724 12.6538 59.9803 12.627 59.9875 12.5996L60.5984 10.5569C60.6283 10.4563 60.7468 10.3955 60.8499 10.4258L66.4703 12.1033C66.5333 12.1221 66.5684 12.1663 66.5864 12.2C66.6045 12.2334 66.6219 12.2864 66.6019 12.3525L65.6438 15.5569C65.6431 15.5593 65.6418 15.5615 65.6411 15.564C65.6405 15.5664 65.6401 15.5688 65.6394 15.5713L53.8193 55.1011L51.8579 54.5161L47.8156 53.3101L53.6693 33.7373C53.8409 33.1638 53.515 32.5598 52.9414 32.3882C52.368 32.2166 51.7639 32.5425 51.5923 33.116L45.4276 53.728C45.4258 53.7344 45.4247 53.7407 45.4229 53.7473C45.4192 53.76 45.4165 53.7732 45.4133 53.7861C45.4067 53.8135 45.4011 53.8408 45.3969 53.8684C45.3947 53.8821 45.3926 53.8958 45.3909 53.9097C45.3873 53.9397 45.3851 53.9697 45.3842 54C45.3837 54.0107 45.3828 54.0212 45.3827 54.0322C45.3823 54.0732 45.3843 54.1143 45.3887 54.1555C45.3889 54.1567 45.3887 54.158 45.3889 54.1594L45.9883 59.5073L46.417 63.2932C46.0062 63.0239 45.6976 62.5549 45.3271 61.9507C44.8722 61.2083 44.2488 60.1919 43.0553 60.416C42.0526 60.6094 41.5812 61.4473 41.1252 62.2573C40.8887 62.6777 40.6439 63.1125 40.303 63.5452C40.0509 63.8657 39.8807 63.9568 39.8262 63.96C39.7825 63.9636 39.5304 63.9395 38.8199 63.2327C36.9608 61.3879 35.5148 62.6462 34.8199 63.2507C34.5604 63.4766 34.2664 63.7324 34.0731 63.7671C33.8903 63.7981 33.5573 63.6121 33.1786 63.2644C32.7372 62.8599 32.0516 62.8894 31.647 63.3311C31.2424 63.7722 31.2721 64.458 31.7134 64.8625C33.932 66.8972 35.4928 65.5391 36.2429 64.8862C36.4263 64.7268 36.7329 64.46 36.838 64.4404C36.8395 64.4407 36.9865 64.4673 37.292 64.7703C37.9709 65.4463 38.7982 66.1282 39.8184 66.1282C39.8645 66.1282 39.911 66.1267 39.9579 66.124C40.7073 66.0786 41.3967 65.6619 42.0067 64.8865C42.4512 64.3225 42.7638 63.7671 43.015 63.3208C43.105 63.1611 43.2124 62.9697 43.3109 62.8127C43.3689 62.9038 43.4276 62.9995 43.4794 63.0837C44.0881 64.0764 45.2125 65.9072 47.7123 65.6985C47.7166 65.6985 47.7212 65.6995 47.7255 65.6995C47.8865 65.6995 48.0297 65.6621 48.1552 65.6062C48.1737 65.5984 48.1913 65.5894 48.2092 65.5806C48.2129 65.5789 48.2167 65.5769 48.2202 65.5752C48.2729 65.5483 48.3231 65.5178 48.3701 65.4834C48.5238 65.3757 48.6385 65.2515 48.7131 65.1707C48.7256 65.1572 48.7375 65.1433 48.7493 65.1292L55.3816 57.1421C55.3915 57.1304 55.3994 57.1172 55.4088 57.105C55.4207 57.0894 55.4323 57.074 55.4434 57.0579C55.4662 57.0242 55.4867 56.9895 55.5055 56.9536C55.5111 56.9429 55.5178 56.9329 55.5231 56.9219C55.5465 56.8735 55.5654 56.8237 55.5814 56.7729C55.5828 56.7683 55.585 56.7646 55.5863 56.7603L58.6351 46.5637L58.6351 71.832L3.75781 71.832L3.75781 38.0806C3.75781 37.4817 3.27246 36.9966 2.67383 36.9966C2.0752 36.9966 1.58984 37.4817 1.58984 38.0806L1.58984 71.9443C1.58984 73.0776 2.51062 74 3.64246 74L58.7466 74C59.8807 74 60.8032 73.0776 60.8032 71.9441L60.8032 39.313L67.4088 17.2222L69.9769 17.988L65.5719 32.7185C65.4004 33.292 65.7263 33.896 66.2999 34.0674C66.4036 34.0984 66.5081 34.113 66.611 34.113C67.0776 34.113 67.5085 33.8093 67.6492 33.3394L72.3649 17.5698C72.4471 17.2944 72.4166 16.9976 72.2799 16.7444ZM63.6354 4.89453C63.7749 4.42554 64.0912 4.03784 64.5264 3.80273C64.9629 3.56665 65.4629 3.51489 65.936 3.65625C66.9103 3.94629 67.4666 4.97681 67.1766 5.9519L66.0508 9.71533L62.5095 8.65845L63.6354 4.89453ZM48.9952 8.42871L49.0006 3.61035L57.0132 11.2427L51.8101 11.2427C50.2579 11.2427 48.9952 9.97998 48.9952 8.42871ZM48.462 62.0813L47.7262 55.5457L52.6654 57.019L48.462 62.0813Z" fill="#4285F4" fill-opacity="1.000000" fill-rule="nonzero"/>
		<path id="Vector" d="M15.3105 29.2607C15.3105 29.8596 15.7959 30.3447 16.3945 30.3447L45.8264 30.3447C46.425 30.3447 46.9104 29.8596 46.9104 29.2607C46.9104 28.6619 46.425 28.1768 45.8264 28.1768L16.3945 28.1768C15.7959 28.1768 15.3105 28.6621 15.3105 29.2607Z" fill="#4285F4" fill-opacity="1.000000" fill-rule="nonzero"/>
		<path id="Vector" d="M16.3945 38.7708L44.0328 38.7708C44.6315 38.7708 45.1168 38.2856 45.1168 37.6868C45.1168 37.0879 44.6315 36.6028 44.0328 36.6028L16.3945 36.6028C15.7959 36.6028 15.3105 37.0879 15.3105 37.6868C15.3105 38.2856 15.7959 38.7708 16.3945 38.7708Z" fill="#4285F4" fill-opacity="1.000000" fill-rule="nonzero"/>
		<path id="Vector" d="M16.3945 47.1968L41.8944 47.1968C42.4932 47.1968 42.9784 46.7117 42.9784 46.1128C42.9784 45.5139 42.4932 45.0288 41.8944 45.0288L16.3945 45.0288C15.7959 45.0288 15.3105 45.5139 15.3105 46.1128C15.3105 46.7117 15.7959 47.1968 16.3945 47.1968Z" fill="#4285F4" fill-opacity="1.000000" fill-rule="nonzero"/>
		<path id="Vector" d="M16.3945 55.6228L33.8583 55.6228C34.4569 55.6228 34.9423 55.1377 34.9423 54.5388C34.9423 53.9399 34.4569 53.4548 33.8583 53.4548L16.3945 53.4548C15.7959 53.4548 15.3105 53.9399 15.3105 54.5388C15.3105 55.1377 15.7959 55.6228 16.3945 55.6228Z" fill="#4285F4" fill-opacity="1.000000" fill-rule="nonzero"/>
		<path id="Vector" d="M42.3787 22.0132C43.3837 22.0132 44.2014 21.1958 44.2014 20.1912L44.2014 15.8206C44.2014 14.8159 43.3837 13.9985 42.3787 13.9985L18.5245 13.9985C17.5195 13.9985 16.7019 14.8159 16.7019 15.8206L16.7019 20.1912C16.7019 21.1958 17.5195 22.0132 18.5245 22.0132L42.3787 22.0132L42.3787 22.0132ZM18.8699 16.1663L42.0336 16.1663L42.0336 19.8452L18.8699 19.8452L18.8699 16.1663Z" fill="#4285F4" fill-opacity="1.000000" fill-rule="nonzero"/>
	</g>
</svg>
