<svg width="154.173218" height="51.054688" viewBox="0 0 154.173 51.0547" fill="none" xmlns="http://www.w3.org/2000/svg" xmlns:xlink="http://www.w3.org/1999/xlink">
	<desc>
			Created with Pixso.
	</desc>
	<defs/>
	<path id="Строй Компания" d="M7.8457 44.2871L5.68945 44.2871L5.68945 50.7207L0.960938 50.7207L0.960938 33.9219L5.68945 33.9219L5.68945 40.4492L7.96875 40.4492L11.9766 33.9219L16.9688 33.9219L11.7129 42.0312L17.0156 50.7207L11.666 50.7207L7.8457 44.2871ZM26.7164 51.0547Q24.0504 51.0547 21.9234 49.9297Q19.8023 48.7988 18.5895 46.8066Q17.3766 44.8145 17.3766 42.3184Q17.3766 39.8223 18.5895 37.8301Q19.8023 35.8379 21.9234 34.7129Q24.0504 33.582 26.7164 33.582Q29.3766 33.582 31.4977 34.7129Q33.6246 35.8379 34.8375 37.8301Q36.0504 39.8223 36.0504 42.3184Q36.0504 44.8145 34.8375 46.8066Q33.6246 48.7988 31.4977 49.9297Q29.3766 51.0547 26.7164 51.0547ZM26.7164 47.123Q27.9879 47.123 29.0191 46.5254Q30.0504 45.9219 30.648 44.832Q31.2516 43.7363 31.2516 42.3184Q31.2516 40.9062 30.648 39.8164Q30.0504 38.7207 29.0191 38.123Q27.9879 37.5195 26.7164 37.5195Q25.4449 37.5195 24.4078 38.123Q23.3766 38.7207 22.773 39.8164Q22.1754 40.9062 22.1754 42.3184Q22.1754 43.7363 22.773 44.832Q23.3766 45.9219 24.4078 46.5254Q25.4449 47.123 26.7164 47.123ZM53.7372 50.7207L53.7137 41.8145L49.3895 49.0625L47.2801 49.0625L42.9618 42.0078L42.9618 50.7207L38.5907 50.7207L38.5907 33.9219L42.5047 33.9219L48.4051 43.6191L54.1649 33.9219L58.079 33.9219L58.1258 50.7207L53.7372 50.7207ZM77.4703 33.9219L77.4703 50.7207L72.7652 50.7207L72.7652 37.6895L66.3843 37.6895L66.3843 50.7207L61.7027 50.7207L61.7027 33.9219L77.4703 33.9219ZM92.6664 47.457L85.559 47.457L84.2406 50.7207L79.3949 50.7207L86.807 33.9219L91.4887 33.9219L98.9301 50.7207L93.9847 50.7207L92.6664 47.457ZM91.2719 43.9531L89.1156 38.5742L86.9535 43.9531L91.2719 43.9531ZM116.831 33.9219L116.831 50.7207L112.079 50.7207L112.079 44.1699L105.599 44.1699L105.599 50.7207L100.847 50.7207L100.847 33.9219L105.599 33.9219L105.599 40.2324L112.079 40.2324L112.079 33.9219L116.831 33.9219ZM120.431 33.9219L125.112 33.9219L125.112 43.7832L132.05 33.9219L136.515 33.9219L136.515 50.7207L131.833 50.7207L131.833 40.8828L124.919 50.7207L120.431 50.7207L120.431 33.9219ZM154.173 33.9219L154.173 50.7207L149.497 50.7207L149.497 46.4961L146.902 46.4961L144.142 50.7207L139.15 50.7207L142.56 45.7988Q140.878 45.0547 139.988 43.6543Q139.103 42.248 139.103 40.3027Q139.103 38.334 140.011 36.8984Q140.925 35.457 142.63 34.6895Q144.335 33.9219 146.615 33.9219L154.173 33.9219ZM146.714 37.666Q143.902 37.666 143.902 40.2324Q143.902 41.5039 144.611 42.166Q145.32 42.8223 146.661 42.8223L149.497 42.8223L149.497 37.666L146.714 37.666Z" fill="#89B0F0" fill-opacity="1.000000" fill-rule="evenodd"/>
	<path id="Строй Компания" d="M9.24023 22.0547Q6.60352 22.0547 4.5 20.9414Q2.40234 19.8223 1.20117 17.8301Q0 15.8379 0 13.3184Q0 10.7988 1.20117 8.80664Q2.40234 6.81445 4.5 5.70117Q6.60352 4.58203 9.24023 4.58203Q11.543 4.58203 13.3887 5.40234Q15.2402 6.2168 16.4648 7.75195L13.4414 10.4883Q11.8066 8.51953 9.48047 8.51953Q8.11523 8.51953 7.04297 9.12305Q5.97656 9.7207 5.38477 10.8164Q4.79883 11.9062 4.79883 13.3184Q4.79883 14.7363 5.38477 15.832Q5.97656 16.9219 7.04297 17.5254Q8.11523 18.123 9.48047 18.123Q11.8066 18.123 13.4414 16.1543L16.4648 18.8906Q15.2402 20.4258 13.3887 21.2402Q11.543 22.0547 9.24023 22.0547ZM31.9898 8.68945L26.857 8.68945L26.857 21.7207L22.1754 21.7207L22.1754 8.68945L17.0133 8.68945L17.0133 4.92188L31.9898 4.92188L31.9898 8.68945ZM41.8505 4.92188Q44.1356 4.92188 45.8114 5.67773Q47.493 6.43359 48.4012 7.83984Q49.3153 9.24023 49.3153 11.1387Q49.3153 13.0312 48.4012 14.4258Q47.493 15.8145 45.8114 16.5703Q44.1356 17.3262 41.8505 17.3262L38.9266 17.3262L38.9266 21.7207L34.1747 21.7207L34.1747 4.92188L41.8505 4.92188ZM41.5634 13.582Q43.0282 13.582 43.7723 12.9492Q44.5165 12.3105 44.5165 11.1387Q44.5165 9.96094 43.7723 9.31641Q43.0282 8.66602 41.5634 8.66602L38.9266 8.66602L38.9266 13.582L41.5634 13.582ZM59.9564 22.0547Q57.2904 22.0547 55.1634 20.9297Q53.0423 19.7988 51.8295 17.8066Q50.6166 15.8145 50.6166 13.3184Q50.6166 10.8223 51.8295 8.83008Q53.0423 6.83789 55.1634 5.71289Q57.2904 4.58203 59.9564 4.58203Q62.6166 4.58203 64.7377 5.71289Q66.8646 6.83789 68.0775 8.83008Q69.2904 10.8223 69.2904 13.3184Q69.2904 15.8145 68.0775 17.8066Q66.8646 19.7988 64.7377 20.9297Q62.6166 22.0547 59.9564 22.0547ZM59.9564 18.123Q61.2279 18.123 62.2591 17.5254Q63.2904 16.9219 63.888 15.832Q64.4916 14.7363 64.4916 13.3184Q64.4916 11.9062 63.888 10.8164Q63.2904 9.7207 62.2591 9.12305Q61.2279 8.51953 59.9564 8.51953Q58.6849 8.51953 57.6478 9.12305Q56.6166 9.7207 56.013 10.8164Q55.4154 11.9062 55.4154 13.3184Q55.4154 14.7363 56.013 15.832Q56.6166 16.9219 57.6478 17.5254Q58.6849 18.123 59.9564 18.123ZM71.8307 4.92188L76.5123 4.92188L76.5123 14.7832L83.4498 4.92188L87.9147 4.92188L87.9147 21.7207L83.233 21.7207L83.233 11.8828L76.319 21.7207L71.8307 21.7207L71.8307 4.92188ZM79.8522 3.91406Q77.3033 3.91406 76.1139 2.92969Q74.9303 1.94531 74.9303 0L78.1237 0Q78.1471 0.837891 78.5514 1.24805Q78.9615 1.6582 79.8522 1.6582Q80.7369 1.6582 81.1705 1.24805Q81.6041 0.837891 81.6276 0L84.8151 0Q84.8151 1.94531 83.6139 2.92969Q82.4186 3.91406 79.8522 3.91406Z" fill="#FFFFFF" fill-opacity="1.000000" fill-rule="evenodd"/>
</svg>
