<svg width="68.737305" height="72.867920" viewBox="0 0 68.7373 72.8679" fill="none" xmlns="http://www.w3.org/2000/svg" xmlns:xlink="http://www.w3.org/1999/xlink">
	<desc>
			Created with Pixso.
	</desc>
	<defs/>
	<path id="Vector" d="M67.6514 0.341064C67.9832 0.544922 68.2572 0.829834 68.4473 1.1687C68.6373 1.50732 68.7372 1.88867 68.7373 2.27661L68.7373 70.5908C68.7373 71.1946 68.496 71.7739 68.0663 72.2009C67.6366 72.6279 67.0538 72.8679 66.4462 72.8679L52.6986 72.8679C52.0909 72.8679 51.5082 72.6279 51.0785 72.2009C50.6488 71.7739 50.4073 71.1946 50.4073 70.5908L50.4073 63.7593L45.825 63.7593L45.825 70.5908C45.825 71.1946 45.5835 71.7739 45.1538 72.2009C44.7241 72.6279 44.1414 72.8679 43.5337 72.8679L2.29126 72.8679C1.68359 72.8679 1.10083 72.6279 0.671143 72.2009C0.241455 71.7739 0 71.1946 0 70.5908L0 45.5422C0.000366211 45.0645 0.151855 44.5989 0.433105 44.2117C0.714478 43.8242 1.11121 43.5344 1.56726 43.3835L27.495 34.7942L27.495 20.4937C27.495 20.0713 27.6133 19.657 27.8367 19.2974C28.0601 18.938 28.3796 18.6472 28.7598 18.458L65.4197 0.240723C65.7693 0.0668945 66.158 -0.0151367 66.5486 0.00244141C66.9392 0.0197754 67.3188 0.136475 67.6514 0.341064ZM27.495 39.5942L4.58252 47.1819L4.58252 68.3137L27.495 68.3137L27.495 39.5942ZM32.0774 68.3137L41.2424 68.3137L41.2424 61.4822C41.2424 60.8782 41.4838 60.2991 41.9135 59.8721C42.3433 59.4451 42.926 59.2051 43.5337 59.2051L52.6986 59.2051C53.3063 59.2051 53.8892 59.4451 54.3188 59.8721C54.7485 60.2991 54.9899 60.8782 54.9899 61.4822L54.9899 68.3137L64.1549 68.3137L64.1549 5.96094L32.0774 21.9009L32.0774 68.3137Z" fill="#FFFFFF" fill-opacity="1.000000" fill-rule="evenodd"/>
	<path id="Vector" d="M9.16504 50.0967L13.7476 50.0967L13.7476 54.6509L9.16504 54.6509L9.16504 50.0967ZM18.3301 50.0967L22.9125 50.0967L22.9125 54.6509L18.3301 54.6509L18.3301 50.0967ZM9.16504 59.2051L13.7476 59.2051L13.7476 63.7593L9.16504 63.7593L9.16504 59.2051ZM18.3301 59.2051L22.9125 59.2051L22.9125 63.7593L18.3301 63.7593L18.3301 59.2051ZM36.66 40.988L41.2424 40.988L41.2424 45.5422L36.66 45.5422L36.66 40.988ZM45.825 40.988L50.4075 40.988L50.4075 45.5422L45.825 45.5422L45.825 40.988ZM36.66 50.0967L41.2424 50.0967L41.2424 54.6509L36.66 54.6509L36.66 50.0967ZM45.825 50.0967L50.4075 50.0967L50.4075 54.6509L45.825 54.6509L45.825 50.0967ZM54.99 40.988L59.5724 40.988L59.5724 45.5422L54.99 45.5422L54.99 40.988ZM54.99 50.0967L59.5724 50.0967L59.5724 54.6509L54.99 54.6509L54.99 50.0967ZM36.66 31.8794L41.2424 31.8794L41.2424 36.4338L36.66 36.4338L36.66 31.8794ZM45.825 31.8794L50.4075 31.8794L50.4075 36.4338L45.825 36.4338L45.825 31.8794ZM54.99 31.8794L59.5724 31.8794L59.5724 36.4338L54.99 36.4338L54.99 31.8794ZM36.66 22.771L41.2424 22.771L41.2424 27.3252L36.66 27.3252L36.66 22.771ZM45.825 22.771L50.4075 22.771L50.4075 27.3252L45.825 27.3252L45.825 22.771ZM54.99 22.771L59.5724 22.771L59.5724 27.3252L54.99 27.3252L54.99 22.771ZM54.99 13.6624L59.5724 13.6624L59.5724 18.2166L54.99 18.2166L54.99 13.6624Z" fill="#FFFFFF" fill-opacity="1.000000" fill-rule="nonzero"/>
</svg>
