<svg width="81.000000" height="81.000000" viewBox="0 0 81 81" fill="none" xmlns="http://www.w3.org/2000/svg" xmlns:xlink="http://www.w3.org/1999/xlink">
	<desc>
			Created with Pixso.
	</desc>
	<defs>
		<clipPath id="clip0_229">
			<rect id="price-tag 1" width="81.000000" height="81.000000" fill="white" fill-opacity="0"/>
		</clipPath>
	</defs>
	<rect id="price-tag 1" width="81.000000" height="81.000000" fill="#FFFFFF" fill-opacity="0"/>
	<g clip-path="url(#clip0_229)">
		<path id="Vector" d="M71.0441 61.3826C71.6993 61.3826 72.2306 60.8513 72.2306 60.196L72.2306 31.7195C72.2306 30.3032 71.6786 28.8547 70.6764 27.6404L61.8766 16.9785C61.4156 16.4199 60.8856 15.949 60.3101 15.5742C60.3453 15.2114 60.3655 14.8452 60.3655 14.4756L60.3655 1.18652C60.3655 0.53125 59.8342 0 59.179 0C58.5237 0 57.9924 0.53125 57.9924 1.18652C57.9924 1.18652 57.99 14.5886 57.9891 14.6453C57.6515 14.5854 57.3088 14.5547 56.9641 14.5547L41.6184 14.5547C40.538 14.5547 39.479 14.8579 38.5309 15.4148C38.4899 15.4294 38.4492 15.446 38.4094 15.4656L26.843 21.0994C25.5615 21.7422 24.5369 22.8203 23.9574 24.1353C23.951 24.1497 23.9451 24.1641 23.9393 24.1785L19.1572 36.3083C18.9169 36.918 19.2162 37.6069 19.8259 37.8474C19.9688 37.9038 20.1158 37.9304 20.2609 37.9304C20.7339 37.9304 21.1809 37.6453 21.3649 37.1787L26.1377 25.0723C26.4967 24.2705 27.1243 23.6133 27.8945 23.2268L34.0056 20.2502L27.906 27.6406C26.9927 28.7471 26.51 30.1577 26.51 31.72L26.51 72.6946C26.51 73.1716 26.5519 73.6389 26.6281 74.0942L14.4017 68.6765C11.6399 67.4529 10.3882 64.2024 11.6119 61.4307C11.6172 61.4185 11.6223 61.4065 11.6273 61.3943L19.3608 42.1753C19.6053 41.5671 19.3109 40.8762 18.703 40.6313C18.0947 40.387 17.4039 40.6814 17.1592 41.2893L9.43262 60.4905C7.69519 64.4536 9.48987 69.0955 13.4403 70.8459L27.7773 77.1987C27.7949 77.2065 27.8127 77.2122 27.8306 77.219C29.2856 79.4927 31.8014 80.9998 34.6575 80.9998L63.925 80.9998C68.4271 80.9998 72.2307 77.1963 72.2307 72.6941L72.2307 65.7332C72.2307 65.0779 71.6995 64.5466 71.0442 64.5466C70.3889 64.5466 69.8577 65.0779 69.8577 65.7332L69.8577 72.6941C69.8577 75.9099 67.1409 78.6267 63.925 78.6267L34.6575 78.6267C31.4735 78.6267 28.8831 75.9656 28.8831 72.6941L28.8831 31.7195C28.8831 30.7012 29.17 29.8369 29.7362 29.1509L38.536 18.489C39.355 17.4968 40.4785 16.9275 41.6184 16.9275L56.9641 16.9275C57.1876 16.9275 57.4104 16.9502 57.6305 16.9929C56.8877 19.5259 55.0477 21.6394 52.5632 22.6987C51.9135 21.6121 50.7257 20.8826 49.3702 20.8826C47.3202 20.8826 45.6525 22.5505 45.6525 24.6003C45.6525 26.6504 47.3202 28.3181 49.3702 28.3181C51.2659 28.3181 52.8337 26.8916 53.0592 25.0557C56.2548 23.8469 58.6711 21.2859 59.7477 18.1599C59.851 18.2639 59.9509 18.3733 60.0465 18.489L68.8463 29.1511C69.4984 29.9412 69.8577 30.8535 69.8577 31.7197L69.8577 60.1963C69.8575 60.8513 70.3888 61.3826 71.0441 61.3826ZM49.3702 25.9451C48.6287 25.9451 48.0255 25.342 48.0255 24.6003C48.0255 23.8589 48.6287 23.2556 49.3702 23.2556C50.1117 23.2556 50.715 23.8589 50.715 24.6003C50.715 25.342 50.1117 25.9451 49.3702 25.9451Z" fill="#4285F4" fill-opacity="1.000000" fill-rule="nonzero"/>
		<path id="Vector" d="M39.0869 63.123C39.3905 63.123 39.6943 63.0073 39.9259 62.7754L60.1759 42.5254C60.6393 42.062 60.6393 41.3108 60.1759 40.8474C59.7125 40.3843 58.9612 40.3843 58.498 40.8474L38.2479 61.0977C37.4915 61.8027 38.0719 63.1589 39.0869 63.123Z" fill="#4285F4" fill-opacity="1.000000" fill-rule="nonzero"/>
		<path id="Vector" d="M41.6182 50.625C44.4531 50.625 46.7598 48.3184 46.7598 45.4834C46.7598 42.6484 44.4531 40.3418 41.6182 40.3418L41.46 40.3418C38.625 40.3418 36.3184 42.6484 36.3184 45.4834C36.3184 48.3184 38.625 50.625 41.46 50.625L41.6182 50.625ZM38.6914 45.4834C38.6914 43.9568 39.9335 42.7148 41.46 42.7148L41.6182 42.7148C43.1447 42.7148 44.3867 43.9568 44.3867 45.4834C44.3867 47.01 43.1447 48.252 41.6182 48.252L41.46 48.252C39.9335 48.252 38.6914 47.01 38.6914 45.4834Z" fill="#4285F4" fill-opacity="1.000000" fill-rule="nonzero"/>
		<path id="Vector" d="M56.9639 63.123L57.1221 63.123C59.957 63.123 62.2637 60.8164 62.2637 57.9814C62.2637 55.1465 59.957 52.8398 57.1221 52.8398L56.9639 52.8398C54.1289 52.8398 51.8223 55.1465 51.8223 57.9814C51.8223 60.8164 54.1289 63.123 56.9639 63.123ZM56.9639 55.2129L57.1221 55.2129C58.6486 55.2129 59.8906 56.4548 59.8906 57.9814C59.8906 59.5081 58.6486 60.75 57.1221 60.75L56.9639 60.75C55.4374 60.75 54.1953 59.5081 54.1953 57.9814C54.1953 56.4548 55.4374 55.2129 56.9639 55.2129Z" fill="#4285F4" fill-opacity="1.000000" fill-rule="nonzero"/>
	</g>
</svg>
