<svg width="75.000000" height="75.000000" viewBox="0 0 75 75" fill="none" xmlns="http://www.w3.org/2000/svg" xmlns:xlink="http://www.w3.org/1999/xlink">
	<desc>
			Created with Pixso.
	</desc>
	<defs>
		<clipPath id="clip0_235">
			<rect id="project 1" width="75.000000" height="75.000000" fill="white" fill-opacity="0"/>
		</clipPath>
	</defs>
	<rect id="project 1" width="75.000000" height="75.000000" fill="#FFFFFF" fill-opacity="0"/>
	<g clip-path="url(#clip0_235)">
		<path id="Vector" d="M73.7499 0L17.5 0C16.8097 0 16.25 0.55957 16.25 1.25L16.25 20L18.75 20L18.75 2.5L72.4999 2.5L72.4999 71.2498C72.5119 71.9072 72.0047 72.4578 71.3486 72.4998C71.2411 72.4998 71.1336 72.4912 71.0261 72.4885C70.8049 72.4824 70.5836 72.4773 70.3661 72.4548C70.3474 72.4548 70.3298 72.4548 70.3111 72.4473C66.2286 72.001 63.0038 68.7793 62.5536 64.6973C62.5536 64.6799 62.5474 64.6611 62.5449 64.6436C62.5146 64.3467 62.4996 64.0483 62.4999 63.7498L62.4999 61.2498C62.4999 60.5596 61.9402 59.9998 61.2499 59.9998L18.75 59.9998L18.75 37.5L16.25 37.5L16.25 59.9998L6.25 59.9998C5.55969 59.9998 5 60.5596 5 61.2498L5 63.7498C5.0069 69.9602 10.0397 74.9929 16.25 74.9998L71.3749 74.9998C73.4033 74.9468 75.0155 73.2788 74.9999 71.2498L74.9999 1.25C74.9999 0.55957 74.4402 0 73.7499 0ZM16.25 72.4998C11.4198 72.4944 7.50549 68.5801 7.5 63.7498L7.5 62.4998L59.9999 62.4998L59.9999 63.7498C60.0016 64.1621 60.0253 64.574 60.0711 64.9836C60.0824 65.0923 60.1036 65.1973 60.1187 65.3049C60.1599 65.6074 60.2099 65.9087 60.2761 66.2048C60.2986 66.3086 60.3274 66.4111 60.3536 66.5149C60.4299 66.8162 60.5161 67.1123 60.6161 67.4048C60.6449 67.4885 60.6749 67.571 60.7061 67.6548C60.8199 67.9648 60.9486 68.2673 61.0899 68.5662C61.1199 68.6274 61.1474 68.6912 61.1774 68.7473C61.3341 69.064 61.5061 69.3718 61.6936 69.6711C61.7186 69.7112 61.7411 69.7524 61.7661 69.7961C61.9698 70.1152 62.1899 70.4241 62.4249 70.7212L62.4649 70.7749C62.7377 71.1174 63.0299 71.4443 63.3399 71.7537C63.6091 72.0203 63.8882 72.2703 64.1774 72.5037L16.25 72.4998Z" fill="#4285F4" fill-opacity="1.000000" fill-rule="nonzero"/>
		<path id="Vector" d="M41.2499 35C41.5815 35 41.8993 34.8682 42.1337 34.6338L47.1337 29.6338C47.6216 29.1455 47.6216 28.3542 47.1337 27.8662L42.1337 22.8662C41.8993 22.6318 41.5815 22.5 41.2499 22.5L6.25 22.5C2.79828 22.5 0 25.2983 0 28.75C0 32.2017 2.79828 35 6.25 35L41.2499 35ZM40.9274 25.1951L44.4824 28.75L40.9274 32.3049L40.0387 28.75L40.9274 25.1951ZM10 25L38.3999 25L37.7749 27.5L12.5 27.5L12.5 30L37.7749 30L38.3999 32.5L10 32.5L10 25ZM2.5 28.75C2.5 26.679 4.17889 25 6.25 25L7.5 25L7.5 32.5L6.25 32.5C4.17889 32.5 2.5 30.821 2.5 28.75Z" fill="#4285F4" fill-opacity="1.000000" fill-rule="nonzero"/>
		<path id="Vector" d="M28.75 53.7498L66.2499 53.7498C66.9402 53.7498 67.4999 53.1902 67.4999 52.4998L67.4999 15C67.4998 14.3096 66.9401 13.75 66.2496 13.7502C65.9182 13.7502 65.6005 13.8821 65.3661 14.1162L27.8662 51.616C27.3781 52.1042 27.3783 52.8958 27.8666 53.3838C28.101 53.6182 28.4186 53.7498 28.75 53.7498ZM64.9999 18.0173L64.9999 21.25L62.4999 21.25L62.4999 23.75L64.9999 23.75L64.9999 26.25L62.4999 26.25L62.4999 28.75L64.9999 28.75L64.9999 31.25L62.4999 31.25L62.4999 33.7498L64.9999 33.7498L64.9999 36.2498L62.4999 36.2498L62.4999 38.7498L64.9999 38.7498L64.9999 41.2498L62.4999 41.2498L62.4999 43.7498L64.9999 43.7498L64.9999 46.2498L62.4999 46.2498L62.4999 48.7498L64.9999 48.7498L64.9999 51.2498L62.4999 51.2498L62.4999 48.7498L59.9999 48.7498L59.9999 51.2498L57.4999 51.2498L57.4999 48.7498L54.9999 48.7498L54.9999 51.2498L52.4999 51.2498L52.4999 48.7498L49.9999 48.7498L49.9999 51.2498L47.4999 51.2498L47.4999 48.7498L44.9999 48.7498L44.9999 51.2498L42.4999 51.2498L42.4999 48.7498L39.9999 48.7498L39.9999 51.2498L37.5 51.2498L37.5 48.7498L35 48.7498L35 51.2498L31.7675 51.2498L64.9999 18.0173Z" fill="#4285F4" fill-opacity="1.000000" fill-rule="nonzero"/>
		<path id="Vector" d="M46.8562 46.2498L58.7499 46.2498C59.4402 46.2498 59.9999 45.6902 59.9999 44.9998L59.9999 33.1062C59.9998 32.4158 59.4401 31.8562 58.7496 31.8564C58.4182 31.8564 58.1006 31.9883 57.8662 32.2224L45.9724 44.116C45.4843 44.6042 45.4845 45.3958 45.9728 45.8838C46.2072 46.1182 46.5248 46.2498 46.8562 46.2498ZM57.4999 36.1248L57.4999 43.7498L49.8749 43.7498L57.4999 36.1248Z" fill="#4285F4" fill-opacity="1.000000" fill-rule="nonzero"/>
		<path id="Vector" d="M32.5 7.5L57.4999 7.5L57.4999 10L32.5 10L32.5 7.5Z" fill="#4285F4" fill-opacity="1.000000" fill-rule="evenodd"/>
		<path id="Vector" d="M28.75 12.5L61.2499 12.5L61.2499 15L28.75 15L28.75 12.5Z" fill="#4285F4" fill-opacity="1.000000" fill-rule="evenodd"/>
		<path id="Vector" d="M21.25 38.75L28.75 38.75L28.75 41.25L21.25 41.25L21.25 38.75Z" fill="#4285F4" fill-opacity="1.000000" fill-rule="evenodd"/>
		<path id="Vector" d="M21.25 43.75L26.25 43.75L26.25 46.25L21.25 46.25L21.25 43.75Z" fill="#4285F4" fill-opacity="1.000000" fill-rule="evenodd"/>
	</g>
</svg>
