<svg width="73.000000" height="73.000000" viewBox="0 0 73 73" fill="none" xmlns="http://www.w3.org/2000/svg" xmlns:xlink="http://www.w3.org/1999/xlink">
	<desc>
			Created with Pixso.
	</desc>
	<defs>
		<clipPath id="clip0_211">
			<rect id="search 1" width="73.000000" height="73.000000" fill="white" fill-opacity="0"/>
		</clipPath>
	</defs>
	<rect id="search 1" width="73.000000" height="73.000000" fill="#FFFFFF" fill-opacity="0"/>
	<g clip-path="url(#clip0_211)">
		<path id="Vector" d="M28.5156 49.0469C36.0632 49.0469 42.2031 42.907 42.2031 35.3594C42.2031 27.8118 36.0632 21.6719 28.5156 21.6719C20.9681 21.6719 14.8281 27.8118 14.8281 35.3594C14.8281 42.907 20.9681 49.0469 28.5156 49.0469ZM28.5156 23.9531C34.8051 23.9531 39.9219 29.0701 39.9219 35.3594C39.9219 41.6487 34.8051 46.7656 28.5156 46.7656C22.2262 46.7656 17.1094 41.6487 17.1094 35.3594C17.1094 29.0701 22.2262 23.9531 28.5156 23.9531Z" fill="#4285F4" fill-opacity="1.000000" fill-rule="nonzero"/>
		<path id="Vector" d="M66.1562 1.14062L27.375 1.14062C24.2303 1.14062 21.6719 3.69897 21.6719 6.84375L21.6719 18.4531C14.9924 21.1665 10.2656 27.7173 10.2656 35.3594C10.2656 38.3616 11.0082 41.1902 12.2982 43.6904L2.89264 53.0962C1.76227 54.2266 1.14062 55.7275 1.14062 57.3254C1.14062 60.6218 3.82336 63.3047 7.11975 63.3047C8.71667 63.3047 10.2189 62.6831 11.3481 61.5537L20.9533 51.9487C21.1917 52.0581 21.4278 52.1665 21.6719 52.2656L21.6719 66.1562C21.6719 69.301 24.2303 71.8594 27.375 71.8594L66.1562 71.8594C69.301 71.8594 71.8594 69.301 71.8594 66.1562L71.8594 6.84375C71.8594 3.69897 69.301 1.14062 66.1562 1.14062ZM28.5156 19.3906C37.3212 19.3906 44.4844 26.5537 44.4844 35.3594C44.4844 44.165 37.3212 51.3281 28.5156 51.3281C19.71 51.3281 12.5469 44.165 12.5469 35.3594C12.5469 26.5537 19.71 19.3906 28.5156 19.3906ZM28.5156 53.6094C38.5782 53.6094 46.7656 45.4219 46.7656 35.3594C46.7656 25.2969 38.5782 17.1094 28.5156 17.1094L28.5156 7.98438L65.0156 7.98438L65.0156 55.8906L28.5156 55.8906L28.5156 53.6094ZM9.73523 59.9409C9.03717 60.6392 8.10754 61.0234 7.11975 61.0234C5.08032 61.0234 3.42188 59.365 3.42188 57.3254C3.42188 56.3376 3.80627 55.4082 4.50433 54.71L9.41016 49.8042L14.6411 55.0352L9.73523 59.9409ZM16.2539 53.4224L11.023 48.1914L13.5027 45.7117C14.9182 47.759 16.7466 49.4929 18.8591 50.8171L16.2539 53.4224ZM69.5781 66.1562C69.5781 68.0427 68.0428 69.5781 66.1562 69.5781L27.375 69.5781C25.4884 69.5781 23.9531 68.0427 23.9531 66.1562L23.9531 53.0083C24.6979 53.2009 25.4565 53.3528 26.2344 53.4509L26.2344 55.8906C26.2344 57.1487 27.2575 58.1719 28.5156 58.1719L65.0156 58.1719C66.2737 58.1719 67.2969 57.1487 67.2969 55.8906L67.2969 7.98438C67.2969 6.72632 66.2737 5.70312 65.0156 5.70312L28.5156 5.70312C27.2575 5.70312 26.2344 6.72632 26.2344 7.98438L26.2344 17.2678C25.4565 17.366 24.6979 17.5178 23.9531 17.7104L23.9531 6.84375C23.9531 4.95728 25.4884 3.42188 27.375 3.42188L66.1562 3.42188C68.0428 3.42188 69.5781 4.95728 69.5781 6.84375L69.5781 66.1562Z" fill="#4285F4" fill-opacity="1.000000" fill-rule="nonzero"/>
		<path id="Vector" d="M53.6094 60.4531L39.9219 60.4531C38.6638 60.4531 37.6406 61.4763 37.6406 62.7344L37.6406 65.0156C37.6406 66.2737 38.6638 67.2969 39.9219 67.2969L53.6094 67.2969C54.8675 67.2969 55.8906 66.2737 55.8906 65.0156L55.8906 62.7344C55.8906 61.4763 54.8675 60.4531 53.6094 60.4531ZM39.9219 65.0156L39.9219 62.7344L53.6094 62.7344L53.6116 65.0156L39.9219 65.0156Z" fill="#4285F4" fill-opacity="1.000000" fill-rule="nonzero"/>
		<path id="Vector" d="M33.0781 60.4531L30.7969 60.4531C29.5388 60.4531 28.5156 61.4763 28.5156 62.7344L28.5156 65.0156C28.5156 66.2737 29.5388 67.2969 30.7969 67.2969L33.0781 67.2969C34.3362 67.2969 35.3594 66.2737 35.3594 65.0156L35.3594 62.7344C35.3594 61.4763 34.3362 60.4531 33.0781 60.4531ZM30.7969 65.0156L30.7969 62.7344L33.0781 62.7344L33.0804 65.0156L30.7969 65.0156Z" fill="#4285F4" fill-opacity="1.000000" fill-rule="nonzero"/>
		<path id="Vector" d="M62.7344 60.4531L60.4531 60.4531C59.195 60.4531 58.1719 61.4763 58.1719 62.7344L58.1719 65.0156C58.1719 66.2737 59.195 67.2969 60.4531 67.2969L62.7344 67.2969C63.9925 67.2969 65.0156 66.2737 65.0156 65.0156L65.0156 62.7344C65.0156 61.4763 63.9925 60.4531 62.7344 60.4531ZM60.4531 65.0156L60.4531 62.7344L62.7344 62.7344L62.7366 65.0156L60.4531 65.0156Z" fill="#4285F4" fill-opacity="1.000000" fill-rule="nonzero"/>
		<path id="Vector" d="M22.8125 27.7183L22.8125 43.0002L36.5684 35.3594L22.8125 27.7183ZM25.0938 31.594L31.8691 35.3594L25.0938 39.1245L25.0938 31.594Z" fill="#4285F4" fill-opacity="1.000000" fill-rule="nonzero"/>
		<path id="Vector" d="M49.0469 21.6719L62.7344 21.6719L62.7344 10.2656L49.0469 10.2656L49.0469 21.6719ZM51.3281 12.5469L60.4531 12.5469L60.4531 19.3906L51.3281 19.3906L51.3281 12.5469Z" fill="#4285F4" fill-opacity="1.000000" fill-rule="nonzero"/>
		<path id="Vector" d="M49.0469 44.4844L62.7344 44.4844L62.7344 33.0781L49.0469 33.0781L49.0469 44.4844ZM51.3281 35.3594L60.4531 35.3594L60.4531 42.2031L51.3281 42.2031L51.3281 35.3594Z" fill="#4285F4" fill-opacity="1.000000" fill-rule="nonzero"/>
		<path id="Vector" d="M49.0469 23.9531L51.3281 23.9531L51.3281 26.2344L49.0469 26.2344L49.0469 23.9531Z" fill="#4285F4" fill-opacity="1.000000" fill-rule="nonzero"/>
		<path id="Vector" d="M53.6094 23.9531L62.7344 23.9531L62.7344 26.2344L53.6094 26.2344L53.6094 23.9531Z" fill="#4285F4" fill-opacity="1.000000" fill-rule="nonzero"/>
		<path id="Vector" d="M49.0469 28.5156L62.7344 28.5156L62.7344 30.7969L49.0469 30.7969L49.0469 28.5156Z" fill="#4285F4" fill-opacity="1.000000" fill-rule="nonzero"/>
		<path id="Vector" d="M49.0469 46.7656L51.3281 46.7656L51.3281 49.0469L49.0469 49.0469L49.0469 46.7656Z" fill="#4285F4" fill-opacity="1.000000" fill-rule="nonzero"/>
		<path id="Vector" d="M53.6094 46.7656L62.7344 46.7656L62.7344 49.0469L53.6094 49.0469L53.6094 46.7656Z" fill="#4285F4" fill-opacity="1.000000" fill-rule="nonzero"/>
		<path id="Vector" d="M49.0469 51.3281L62.7344 51.3281L62.7344 53.6094L49.0469 53.6094L49.0469 51.3281Z" fill="#4285F4" fill-opacity="1.000000" fill-rule="nonzero"/>
	</g>
</svg>
