<svg width="78.000000" height="78.000000" viewBox="0 0 78 78" fill="none" xmlns="http://www.w3.org/2000/svg" xmlns:xlink="http://www.w3.org/1999/xlink">
	<desc>
			Created with Pixso.
	</desc>
	<defs>
		<clipPath id="clip0_197">
			<rect id="shield 1" width="78.000000" height="78.000000" fill="white" fill-opacity="0"/>
		</clipPath>
	</defs>
	<rect id="shield 1" width="78.000000" height="78.000000" fill="#FFFFFF" fill-opacity="0"/>
	<g clip-path="url(#clip0_197)">
		<path id="Vector" d="M62.1671 54.1365C61.9862 54.1362 61.8085 54.0896 61.6509 54.0007C61.4933 53.9121 61.3611 53.7842 61.2672 53.6296C61.1733 53.4751 61.1207 53.2988 61.1146 53.1182C61.1085 52.9375 61.1489 52.7581 61.2322 52.5974C61.7096 51.6741 62.1228 50.793 62.4971 49.9055C62.6089 49.6543 62.8146 49.4568 63.0702 49.355C63.3257 49.2532 63.6108 49.2556 63.8647 49.3611C64.1187 49.4668 64.3213 49.6675 64.4293 49.9204C64.5372 50.1733 64.5421 50.4585 64.4427 50.7148C64.0518 51.6572 63.6154 52.5901 63.1094 53.5671C63.02 53.7397 62.8848 53.8843 62.7185 53.9846C62.5522 54.085 62.3613 54.1377 62.1671 54.1365Z" fill="#4285F4" fill-opacity="1.000000" fill-rule="nonzero"/>
		<path id="Vector" d="M39 75.8918C38.835 75.8916 38.6722 75.853 38.5247 75.7791C20.9957 66.9324 10.53 52.0923 10.53 36.0803L10.53 14.7566C10.53 14.6094 10.561 14.4634 10.621 14.3289C10.6809 14.1941 10.7684 14.0735 10.8778 13.9746C10.9877 13.8762 11.1167 13.8018 11.2567 13.7559C11.3969 13.71 11.5449 13.6936 11.6917 13.708C22.1151 14.781 31.0325 11.0032 38.1926 2.4834C38.2905 2.36694 38.4125 2.27319 38.5499 2.2085C38.6875 2.1438 38.8375 2.10938 38.9895 2.10815C39.1417 2.10547 39.2927 2.13647 39.4318 2.19873C39.5707 2.26123 39.6943 2.35327 39.7937 2.46851C46.0833 9.66235 55.048 13.4412 66.4402 13.7026C66.7156 13.709 66.9774 13.8228 67.1699 14.0198C67.3624 14.2168 67.4701 14.4812 67.4701 14.7566L67.4701 32.1169C67.4701 32.3965 67.359 32.6646 67.1613 32.8623C66.9636 33.0601 66.6956 33.1711 66.416 33.1711C66.1365 33.1711 65.8683 33.0601 65.6707 32.8623C65.473 32.6646 65.3619 32.3965 65.3619 32.1169L65.3619 15.7791C54.3123 15.3206 45.4603 11.6157 39.019 4.75269C31.7882 12.8899 22.9225 16.634 12.6382 15.9067L12.6382 36.0803C12.6382 51.1362 22.4819 65.1499 39 73.6541C46.1238 70.0918 52.3763 65.0056 57.3142 58.7561C57.3983 58.646 57.5033 58.5537 57.623 58.4844C57.7428 58.415 57.8751 58.3699 58.0123 58.3516C58.1495 58.3333 58.2891 58.342 58.4227 58.3777C58.5565 58.4133 58.682 58.4749 58.792 58.5591C58.902 58.6431 58.9943 58.748 59.0637 58.8677C59.1332 58.9875 59.1783 59.1199 59.1967 59.2571C59.215 59.3943 59.2061 59.5337 59.1704 59.6675C59.1348 59.8013 59.0732 59.9268 58.9891 60.0369C53.7432 66.677 47.075 72.0564 39.4755 75.7791C39.3279 75.853 39.165 75.8916 39 75.8918Z" fill="#4285F4" fill-opacity="1.000000" fill-rule="nonzero"/>
		<path id="Vector" d="M65.6897 44.2913C65.6189 44.2917 65.5482 44.2847 65.4789 44.2703C65.2047 44.2153 64.9636 44.0542 64.8085 43.8218C64.6533 43.5891 64.5968 43.3047 64.6514 43.0305C64.8622 42.0071 65.0225 40.9614 65.1447 39.9211C65.1583 39.7817 65.1996 39.6462 65.2662 39.5229C65.3328 39.3997 65.4232 39.2908 65.5323 39.2029C65.6415 39.115 65.7671 39.0496 65.9017 39.0107C66.0364 38.9719 66.1774 38.9604 66.3167 38.9766C66.4558 38.9929 66.5903 39.0369 66.7123 39.106C66.8344 39.1748 66.9414 39.2673 67.0272 39.3782C67.113 39.489 67.1758 39.6157 67.212 39.7512C67.2483 39.8867 67.2571 40.0278 67.238 40.1667C67.1095 41.2629 66.9344 42.3655 66.7184 43.4438C66.6708 43.6819 66.5425 43.8962 66.355 44.0508C66.1675 44.2051 65.9325 44.29 65.6897 44.2913Z" fill="#4285F4" fill-opacity="1.000000" fill-rule="nonzero"/>
		<path id="Vector" d="M39 68.9922C38.8191 68.9922 38.6411 68.9453 38.4835 68.8562C24.7261 61.1235 16.5139 48.9177 16.5139 36.2036L16.5139 20.8049C16.5137 20.5334 16.6182 20.2722 16.8057 20.0759C16.9932 19.8796 17.2493 19.7632 17.5205 19.751C25.3378 19.4119 32.764 16.2375 38.4109 10.821C38.5995 10.646 38.8457 10.5461 39.1029 10.54C39.3602 10.5342 39.6108 10.6223 39.8075 10.7883C45.7172 15.6304 52.9436 18.5879 60.5522 19.2788C60.8094 19.3081 61.0469 19.4309 61.2192 19.6238C61.3917 19.8169 61.4871 20.0667 61.4873 20.3254L61.4873 36.2026C61.4873 48.9167 53.274 61.1235 39.5166 68.8562C39.359 68.9453 39.181 68.9922 39 68.9922ZM18.6221 21.7991L18.6221 36.2036C18.6221 47.9871 26.228 59.3591 39 66.7217C51.7731 59.3569 59.3792 47.9827 59.3792 36.1995L59.3792 21.2573C52.005 20.4209 45.0067 17.5583 39.1603 12.9871C33.4976 18.1467 26.2632 21.2507 18.6221 21.7991Z" fill="#4285F4" fill-opacity="1.000000" fill-rule="nonzero"/>
		<path id="Vector" d="M34.3948 48.3938C34.1152 48.3938 33.8472 48.2827 33.6495 48.085L27.7142 42.1494C27.5222 41.9507 27.416 41.6846 27.4183 41.4082C27.4208 41.1318 27.5316 40.8674 27.7271 40.6719C27.9225 40.4766 28.1869 40.3657 28.4633 40.3633C28.7396 40.3608 29.0059 40.467 29.2047 40.6592L34.3948 45.8513L48.7953 31.4478C48.8932 31.3499 49.0094 31.272 49.1372 31.219C49.2651 31.166 49.4022 31.1387 49.5406 31.1387C49.6791 31.1387 49.8162 31.1658 49.9441 31.2188C50.072 31.2717 50.1884 31.3494 50.2863 31.4473C50.3842 31.5452 50.4619 31.6611 50.5149 31.7891C50.568 31.917 50.5952 32.0542 50.5953 32.1926C50.5953 32.3311 50.5681 32.468 50.5151 32.5959C50.4623 32.7239 50.3846 32.8403 50.2867 32.9382L35.14 48.085C34.9424 48.2827 34.6743 48.3938 34.3948 48.3938Z" fill="#4285F4" fill-opacity="1.000000" fill-rule="nonzero"/>
	</g>
</svg>
